<?xml version="1.0" encoding="utf-8"?>
<!-- Generator: Adobe Illustrator 16.0.4, SVG Export Plug-In . SVG Version: 6.00 Build 0)  -->
<!DOCTYPE svg PUBLIC "-//W3C//DTD SVG 1.1//EN" "http://www.w3.org/Graphics/SVG/1.1/DTD/svg11.dtd">
<svg version="1.1" id="Female" xmlns="http://www.w3.org/2000/svg" xmlns:xlink="http://www.w3.org/1999/xlink" x="0px" y="0px"
	 width="536.844px" height="288px" viewBox="0 0 536.844 288" enable-background="new 0 0 536.844 288" xml:space="preserve">
<g>
	<defs>
		<rect id="SVGID_1_" x="0" width="536.844" height="288"/>
	</defs>
	<clipPath id="SVGID_2_">
		<use xlink:href="#SVGID_1_"  overflow="visible"/>
	</clipPath>
	<g clip-path="url(#SVGID_2_)">
		<path fill-rule="evenodd" clip-rule="evenodd" fill="#61B4E4" d="M299.186,594.898c-1.566,0-3.137-0.031-4.695-0.064
			c-16.322-0.375-21.785-0.847-22.36-0.896l-5.686-0.519l-0.024-0.346c-51.035-6.441-99.033-22.404-142.768-47.491l-8.918-5.601
			c-25.286-16.939-47.814-37.127-67.136-60.129h-0.025l-1.927-2.152l-3.109-3.794c-24.772-30.939-43.106-65.592-54.544-103.072
			l-1.308-5.154c-3.341-11.606-6.02-23.646-7.96-35.784c-14.038,4.819-27.856,7.178-42.015,7.178
			c-31.683,0-62.725-11.917-94.903-36.43l-33.236-25.322l41.065-7.74c1.837-0.353,8.952-1.737,18.892-3.885
			c-24.776-17.98-41.496-39.016-42.312-40.048l-30.666-38.822l48.657,9.015c0.102,0.019,8.547,1.576,21.273,3.44l13.493-2.99
			c22.734-5.035,63.48-17.873,76.058-30.865c7.394-7.634,14.734-19.093,22.514-31.231c6.63-10.351,13.426-20.979,21.135-30.687
			c-11.137-12.164-10.23-21.933-7.189-28.23C-3.6,63.075,4.592,61.986,14.082,60.724l3.718-0.501
			c1.225-0.167,2.49-0.353,3.796-0.562C41.032,27.463,65.81,9.472,97.252,4.689c5.989-0.909,12.829-1.584,20.376-2.017
			c24.29-28.008,54.662-42.59,92.745-44.571c2.846-0.142,5.642-0.216,8.4-0.216c20.812,0,41.571,3.99,61.691,11.847
			c12.342,4.82,22.29,10.289,29.25,14.645c8.439-5.03,17.875-9.193,28.121-12.398c17.719-5.618,33.369-6.917,39.285-7.22
			c1.656-0.086,3.582-0.13,5.66-0.13c13.309,0,34.68,2.005,48.643,4.56c7.801,1.441,16.35,1.652,20.756,1.652
			c2.709,0,4.49-0.075,4.777-0.087l34.688-1.745L473.922-1.169c-2.215,3.724-4.914,7.176-8.094,10.332
			c6.967,3.588,14.191,7.727,21.592,12.367l39.602,0.465l-26.275,30.321c-3.254,3.75-7.281,6.93-12.293,9.732
			c-9.496,5.24-22.248,8.655-38.02,10.196c6.355,15.715,3.342,27.067,2.539,29.511l-8.465,25.972l-14.811-12.226
			c8.229,34.077-3.219,51.858-5.996,55.533l-15.152,20.039l-14.734-20.348c-14.355-19.805-26.68-30.241-29.711-31.925
			c-0.512,1.052-1.008,2.086-1.459,3.045c0.432,1.311,0.902,2.697,1.311,3.909c7.4,21.741,9.947,32.313,6.646,41.502
			c-2.83,7.858-9.221,13.616-18.229,16.544c-0.049,0.297-0.094,0.557-0.143,0.778c-1.027,4.969-3.682,9.418-7.887,13.271
			c0.451,5.897-1.406,11.656-5.352,16.307c-2.328,2.718-5.068,4.914-7.48,6.666c-2.648,14.456-11.645,24.22-25.613,27.635
			c-3.168,0.781-6.54,1.175-10.024,1.175c-19.396,0-39.243-12.422-46.871-17.766c-0.754-0.533-1.034-0.614-1.979-0.614
			c-2.556,0-6.62,1.071-10.271,2.111c-3.873,1.533-22.112,18.041-35.772,33.13c3.872,16.934,8.425,41.371,7.881,68.594
			c-0.148,7.727,0.236,18.388,0.601,28.684c1.255,35.362,2.82,79.308-9.46,106.487c-3.416,7.554-6.942,13.473-10.932,18.221
			c15.671,6.824,37.572,13.424,63.645,13.424c7.832,0,15.751-0.594,23.521-1.769c43.302-6.501,74.144-41.823,77.522-45.826
			c2.912-3.448,6.199-8.159,9.094-12.318c4.814-6.918,7.449-10.616,10.74-13.419c2.445-2.08,10.623-9.472,13.562-12.139l0.723-0.657
			l17.076-12.459c8.979-8.378,24.289-22.619,28.441-26.19c6.299-5.4,12.695-6.532,16.939-6.532c7.723,0,13.129,3.613,15.121,5.017
			c2.758,1.722,5.408,4.302,10.455,11.898c2.055,2.834,3.689,6.286,4.801,10.189c4.826,1.752,8.031,3.899,9.355,4.889l1.311,0.983
			l1.127,1.181c2.711,2.891,4.814,6.362,6.242,10.357c5.34,2.674,8.953,6.007,10.77,7.938c5.521,5.259,8.861,12.931,9.568,22.131
			c8.486,9.64,9.639,23.015,6.902,31.918c-0.557,1.844-1.355,3.663-2.436,5.544l-1.375,2.406l-2.029,1.894
			c-4.898,4.609-9.91,9.045-14.934,13.196l0.012,0.057l-3.354,2.703c-9.863,7.887-21.908,16.208-34.838,24.072l-21.252,11.699
			c-34.055,17.541-70.68,28.788-109.014,33.527c-0.035,0.005-9.934,1.181-12.385,1.405
			C299.601,594.898,299.42,594.898,299.186,594.898"/>
		<path fill-rule="evenodd" clip-rule="evenodd" fill="#61B4E4" d="M500.19,474.063c0,0,2.289-12.375-3.996-18.024
			c0,0-5.123-6.124-13.914-6.367c0,0,0.711-7.886-3.322-12.174c0,0-6.076-4.53-15.307-3.669c0,0,1.188-10.134-3.068-15.782
			c0,0-4.033-6.096-5.16-6.776c-1.121-0.667-4.924-4.3-9.912-0.044c-4.949,4.258-28.688,26.449-28.688,26.449l-17.17,12.537
			c0,0-10.844,9.836-14.006,12.526c-3.16,2.691-10.654,15.271-17.664,23.561c-7.021,8.314-41.186,45.046-88.967,52.229
			c-74.917,11.261-126.459-29.319-126.459-29.319c13.626-5.19,21.413-6.483,30.495-26.603c14.075-31.159,6.595-95.835,7.22-127.888
			c0.625-31.381-6.206-59.335-9.621-73.321l2.802-3.164c7.307-8.494,36.583-39.42,48.177-42.743
			c11.57-3.317,19.835-4.615,28.039,1.138c8.229,5.767,27.68,17.226,41.805,13.772c14.1-3.453,11.654-17.417,12.441-19.303
			c0.779-1.905,7.844-5.4,10.889-8.966c2.375-2.801-0.088-6.007-1.275-7.286c-0.061,0.022-0.109,0.022-0.18,0
			c-1.613-0.583-9.904-2.128-14.568-9.547c0,0,4.801,2.399,17.174,2.797c0.756-0.601,7.326-3.745,8.068-7.281
			c0.451-2.173,1.479-13.384,1.479-13.384s15.016,0.718,17.59-6.453c2.584-7.177-10.914-38.42-10.061-40.796
			c0.854-2.4,7.555-16.611,10.963-21.9l4.344-7.759c0,0,6.441,7.845,13.834,11.52c7.416,3.675,22.371,18.004,36.693,37.771
			c0,0,18.986-25.105-16.295-83.67c0,0,22.953,3.538,42.725,19.859c0,0,5.83-17.892-21.342-41.94c0,0,43.824,3.675,65.43-8.247
			c2.896-1.621,5.402-3.483,7.332-5.698c0,0-4.279,0-6.59-1.238c-2.289-1.2-31.898-21.511-60.279-27.277
			c-0.605-0.137-1.205-0.247-1.816-0.353c0,0,0.271-0.024,0.766-0.093c4.598-0.649,29.004-4.794,39.139-21.827
			c0,0-15.51,0.805-29.857-1.844c-14.342-2.624-38.098-4.77-50.033-4.145c-6.75,0.334-20.014,1.75-34.652,6.384
			c-11.225,3.521-23.244,8.946-33.781,17.218c0,0-13.407-11.099-35.908-19.885c-16.482-6.428-37.839-11.656-62.364-10.375
			c-44.458,2.295-68.083,23.126-84.63,44.205c-9.407,0.285-18.929,1.015-26.659,2.197c-24.53,3.724-47.212,17.403-66.583,53.288
			c-4.466,0.921-8.946,1.713-13.171,2.282c-11.702,1.584-11.412,1.374-12.059,2.71c-1.373,2.846,8.105,11.779,14.18,16.179
			c0.266,0.191,0.6,0.347,0.888,0.532c-0.833,2.017-1.649,4.071-2.459,6.192C0.738,125.47-13.855,158.03-31.598,176.362
			c-21.199,21.896-85.406,36.088-85.406,36.088c3.204,2.609,6.214,4.862,9.122,6.936c-28.06-2.945-51.304-7.251-51.304-7.251
			s37.764,47.792,81.876,57.346c-33.202,9.504-69.611,16.369-69.611,16.369c54.509,41.527,99.983,38.99,141.184,16.954
			c1.596,21.505,5.556,42.366,11.65,62.347c-0.047,0.091-0.09,0.172-0.133,0.259c10.852,35.548,28.382,68.276,51.221,96.812
			c0.068,0.012,0.145,0.018,0.216,0.03c20.417,25.552,45.093,47.763,72.956,65.605c0,0,0,0.023,0.025,0.023
			c36.177,21.166,84.247,40.731,144.109,47.405c-0.295,0.08-0.494,0.132-0.494,0.132s5.012,0.457,21.104,0.826
			c11.854,0.279,23.516-0.649,35.012-1.904h0.023l0.02-0.019l3.738-2.897c10.523-9.024,21.336-20.013,31.99-37.18
			c10.668-17.178,18.178-49.793,18.562-51.675c0.098-0.487,0.258-0.816,0.443-1.051c-0.146,0.222-0.271,0.507-0.352,0.921
			c-0.379,1.88-7.826,34.492-18.381,51.661c-10.555,17.17-21.271,28.157-31.703,37.188l-3.686,2.889l-0.031,0.027
			c46.234-5.138,89.318-20.374,126.861-43.434c-0.014,0.098-0.023,0.211-0.039,0.304c11.131-6.768,22.787-14.639,32.879-22.699
			c-0.02,0.005-0.039,0.019-0.062,0.023c5.951-4.79,11.693-9.8,17.238-15.016c0.357-0.623,0.629-1.205,0.777-1.727
			C509.112,488.719,509.403,477.693,500.19,474.063 M57.654,226.761c1.386-1.855,2.647-3.755,3.693-5.749
			c18.069-34.434,20.925-49.171,28.711-59.808c12.602,2.339,24.867,3.57,36.391,3.941c0,0-16.027,27.347-32.692,39.291
			c-9.058,6.498-26.202,17.072-36.428,22.986C57.437,227.198,57.545,226.978,57.654,226.761 M139.765,280.276
			c0,0,0.177,0.143,0.442,0.359c-0.398-0.235-0.652-0.384-0.652-0.384c61.823-48.455,60.313-81.345,59.979-84.716
			c0.049-0.094,0.123-0.191,0.173-0.278C199.707,195.258,205.064,229.098,139.765,280.276 M478.994,475.708
			c0,0,1.867-1.312,2.172-3.668c-0.279,2.394-2.16,3.723-2.16,3.723s-0.271,0.364-0.705,0.91
			C478.723,476.105,478.994,475.708,478.994,475.708 M432.26,460.667c0.01,0.131,0.061,0.224,0.152,0.278
			C432.049,461.038,432.073,460.927,432.26,460.667 M438.711,484.679c-0.166,0.254-0.402,0.496-0.73,0.729
			C438.274,485.16,438.52,484.919,438.711,484.679 M438.891,484.413c-0.014,0.019-0.025,0.037-0.037,0.049
			C438.865,484.45,438.877,484.432,438.891,484.413 M447.125,444.866c0.049-0.086,0.1-0.179,0.154-0.273
			C447.225,444.688,447.174,444.78,447.125,444.866 M428.391,482.266c-1.256-0.079-2.467-0.322-3.469-0.797
			C425.936,481.908,427.149,482.153,428.391,482.266 M462.66,456.108c1.795,3.161,0.209,6.297-0.711,7.64
			c-0.896,1.348-4.51,4.258-4.529,5.852c0,1.084-0.08,1.604,0.217,1.765c-0.543-0.03-0.438-0.537-0.438-1.819
			c0.016-1.59,3.66-4.502,4.57-5.846c0.928-1.343,2.531-4.485,0.723-7.646c-1.127-1.964-3.471-2.885-5.102-3.304
			C459.004,453.138,461.496,454.049,462.66,456.108 M457.303,520.289c-0.037-0.024-0.068-0.06-0.104-0.086
			C457.235,520.234,457.278,520.26,457.303,520.289 M457.172,520.192c-0.141-0.093-0.326-0.173-0.551-0.244
			C456.858,520.02,457.043,520.092,457.172,520.192 M446.772,434.207c0.912,1.279,2.092,4.207,1.652,7.195
			c0.34-3.002-1.057-5.976-1.973-7.245c-0.26-0.371-0.562-0.577-0.887-0.682C446.018,433.513,446.426,433.719,446.772,434.207
			 M467.127,486.021c-0.221-1.368,4.195-2.537,5.934-3.812c0.959-0.706,1.898-1.607,2.727-2.511
			c-0.977,1.118-1.979,2.14-2.658,2.567c-1.807,1.118-6.088,2.439-5.871,3.806c0.141,0.822,0.117,1.46,0.469,1.7
			C467.244,487.599,467.283,486.919,467.127,486.021 M479.328,502.726c1.131,0.023,2.734-0.878,5.246-3.34
			c0.262-0.255,0.471-0.552,0.693-0.856c-0.223,0.33-0.459,0.646-0.73,0.905c-2.488,2.462-4.078,3.366-5.197,3.342
			c-1.113,0-2.486,0.445-2.041,1.57c0.049,0.129,0.135,0.283,0.234,0.44c-0.109-0.181-0.211-0.349-0.266-0.495
			C476.815,503.17,478.188,502.726,479.328,502.726"/>
		<path fill-rule="evenodd" clip-rule="evenodd" fill="#FFFFFF" d="M126.971,423.757c-25.855,34.293-51.144,41.699-69.968,38.464
			c-22.845-28.535-40.375-61.264-51.221-96.819c16.225-33.929,40.097-59.999,58.006-70.047c17.143-9.608,32.696-16.21,60.396-18.195
			c0,0,60.377-56.802,75.312-81.927c0,0,5.357,33.842-59.938,85.02c0,0,16.454,12.554,24.607,25.553
			C177.031,326.308,163.659,375.098,126.971,423.757"/>
		<path fill-rule="evenodd" clip-rule="evenodd" fill="#022169" d="M500.19,474.063c0,0,2.283-12.375-3.99-18.024
			c0,0-5.135-6.124-13.926-6.372c0,0,0.725-7.881-3.311-12.169c0,0-6.076-4.53-15.312-3.674c0,0,1.188-10.129-3.068-15.777
			c0,0-4.041-6.096-5.154-6.776c-1.119-0.674-4.938-4.3-9.912-0.044c-4.955,4.258-28.688,26.449-28.688,26.449l-17.176,12.528
			c0,0-10.85,9.845-14.006,12.535c-3.168,2.691-10.648,15.271-17.67,23.561c-7.01,8.314-41.18,45.046-88.967,52.229
			c-74.911,11.261-126.45-29.319-126.45-29.319c13.62-5.19,21.41-6.489,30.492-26.603c14.069-31.159,6.588-95.835,7.213-127.883
			c0.631-31.386-6.206-59.34-9.608-73.326l2.803-3.164c7.3-8.494,36.577-39.42,48.165-42.743
			c11.569-3.317,19.841-4.615,28.045,1.138c8.229,5.767,27.68,17.226,41.799,13.772c14.105-3.458,11.656-17.417,12.447-19.309
			c0.779-1.899,7.844-5.395,10.896-8.964c2.373-2.797-0.096-6.003-1.283-7.282c-0.066,0.022-0.109,0.022-0.172,0
			c-1.621-0.583-9.912-2.128-14.576-9.547c0,0,4.801,2.393,17.174,2.797c0.756-0.601,7.326-3.745,8.068-7.281
			c0.445-2.181,1.473-13.384,1.473-13.384s15.021,0.718,17.602-6.453c2.578-7.177-10.914-38.42-10.066-40.796
			c0.854-2.4,7.547-16.611,10.963-21.9l4.348-7.753c0,0,6.43,7.839,13.83,11.514c7.424,3.675,22.371,17.997,36.699,37.771
			c0,0,18.98-25.105-16.309-83.677c0,0,22.965,3.544,42.727,19.865c0,0,5.828-17.892-21.332-41.94c0,0,43.816,3.675,65.434-8.247
			c2.883-1.621,5.4-3.483,7.324-5.698c0,0-4.279,0-6.584-1.238c-2.289-1.206-31.898-21.511-60.285-27.277
			c-0.605-0.137-1.211-0.241-1.812-0.353c0,0,0.268-0.031,0.762-0.093c4.604-0.649,29.01-4.801,39.139-21.827
			c0,0-15.516,0.805-29.857-1.844c-14.342-2.624-38.105-4.776-50.027-4.145c-6.75,0.334-20.02,1.745-34.658,6.384
			c-11.23,3.521-23.238,8.946-33.781,17.218c0,0-13.4-11.099-35.908-19.885c-16.475-6.428-37.839-11.656-62.364-10.375
			c-44.462,2.295-68.067,23.126-84.608,44.205c-9.413,0.285-18.941,1.015-26.684,2.189c-24.525,3.731-47.212,17.411-66.583,53.289
			c-4.468,0.928-8.94,1.713-13.172,2.289C8.589,80.237,8.885,80.027,8.24,81.363c-1.38,2.846,8.104,11.779,14.18,16.173
			c0.272,0.204,0.622,0.371,0.919,0.563c-0.83,2.023-1.668,4.028-2.485,6.162c-20.113,21.202-34.705,53.77-52.455,72.102
			c-21.193,21.896-85.41,36.088-85.41,36.088c3.214,2.609,6.224,4.862,9.132,6.936c-28.066-2.945-51.305-7.258-51.305-7.258
			s37.759,47.799,81.871,57.353c-33.202,9.504-69.605,16.369-69.605,16.369c54.503,41.527,99.977,38.99,141.178,16.954
			c1.603,21.604,5.593,42.56,11.73,62.629c16.231-33.935,42.594-63.562,64.241-73.431c24.543-11.186,33.146-11.929,54.16-14.819
			c0,0,60.38-56.801,75.315-81.925c0,0,5.357,33.848-59.938,85.019c0,0,13.995,11.23,23.687,25.764
			c11.641,17.458,2.852,63.378-39.077,119.722c-26.6,35.741-52.152,38.595-67.167,36.484c20.42,25.557,45.102,47.768,72.965,65.61
			c0,0,0,0.023,0.019,0.023c36.475,21.339,85.022,41.064,145.567,47.59c0,0,21.165-4.595,63.613-36.156
			c0,0,33.676-27.773,42.818-59.027c0,0-1.102-8.104,11.316-15.487c12.416-7.372,38.154-22.567,38.154-22.567
			s8.117-4.468,10.152-6.479c2.041-2.016,3.836-3.137,4.955-1.546c1.121,1.569,2.688,5.623,1.096,9.237
			c-1.59,3.58-5.215,6.94-7.709,9.186c-2.492,2.24-7.441,5.378-7.666,6.498c-0.246,1.125-0.697,2.245,0.656,1.794
			c1.361-0.446,4.27-1.985,5.865-2.891c1.572-0.897,8.365-5.604,16.902-5.555c0,0,4.949,0.47,6.744,3.632
			c1.795,3.161,0.205,6.297-0.717,7.64c-0.891,1.348-4.504,4.264-4.518,5.852c0,1.566-0.234,2.019,0.891,1.796
			c1.121-0.229,5.65-3.117,7.215-4.689c1.596-1.566,9.26-5.601,13.74,0.043c4.486,5.655-0.266,9.014-0.266,9.014
			s-4.084,5.384-5.871,6.503c-1.82,1.118-6.1,2.439-5.871,3.806c0.221,1.349,0,2.245,1.795,1.57
			c1.787-0.649,4.051-2.216,6.322-3.563c2.258-1.343,4.047-2.016,6.291-1.546c2.266,0.451,5.402,2.487,5.6,5.647
			c0.236,3.163-0.246,8.793-2.729,11.255c-2.494,2.462-4.076,3.366-5.203,3.342c-1.119,0-2.486,0.445-2.041,1.57
			c0.457,1.14,2.92,3.607,3.811,4.3c0.902,0.668,3.365,2.041,3.365,2.041s2.463-0.692,5.693-2.264
			c5.965-4.796,11.705-9.818,17.262-15.041c0.357-0.623,0.623-1.213,0.785-1.732C509.112,488.719,509.408,477.693,500.19,474.063
			 M93.76,204.432c-9.058,6.503-26.208,17.077-36.428,22.991c0.102-0.225,0.216-0.445,0.318-0.662
			c1.393-1.851,2.655-3.755,3.694-5.749c18.069-34.434,20.924-49.171,28.716-59.808c12.603,2.333,24.862,3.57,36.391,3.941
			C126.451,165.146,110.418,192.492,93.76,204.432"/>
		<path fill-rule="evenodd" clip-rule="evenodd" fill="#1D1D1B" d="M323.35,214.846c0.07,0.018,0.119,0.018,0.18,0
			c-0.334-0.36-0.58-0.559-0.58-0.559l2.932-6.119c0,0,0.025-0.023,0.068-0.067c-12.373-0.409-17.168-2.802-17.168-2.802
			C313.446,212.718,321.737,214.263,323.35,214.846"/>
		<path fill-rule="evenodd" clip-rule="evenodd" fill="#FFFFFF" d="M326.129,208.096c0,0-1.324,6.618-2.6,6.75
			c-0.066,0.022-0.109,0.022-0.186,0c-1.607-0.583-9.904-2.128-14.562-9.547c0,0,4.801,2.393,17.174,2.797H326.129z"/>
		<path fill-rule="evenodd" clip-rule="evenodd" fill="#022169" d="M457.762,530.561c-37.611,23.175-80.832,38.489-127.203,43.644
			l0.012-0.027l3.699-2.889c10.426-9.031,21.148-20.015,31.703-37.188c10.555-17.169,17.998-49.781,18.375-51.661
			c0.389-1.862,1.502-1.483,2.537-2.043c1.031-0.562,6.834-1.748,8.896-2.285c2.064-0.564,9.662-3.901,11.166-4.906
			c1.504-1.035,13.109-5.769,14.795-5.946c1.707-0.176,2.535,0.023,1.59,1.322c-0.936,1.298-2,7.202-0.428,10.945
			c1.57,3.761,9.057,2.752,11.322,2.395c2.244-0.365,4.775-0.162,4.955,1.528c0.18,1.676-2.957,2.751-4.795,5.487
			c-1.529,2.24-2.648,5.776-1.553,9.256c1.102,3.477,9.439,2.103,9.439,2.103s7.605-4.455,9.162-0.712
			c1.598,3.744-4.613,7.734-5.74,8.854c-1.113,1.126-2.164,3.093-1.137,6.835c1.006,3.745,9.057,4.062,11.1,4.437
			c2.064,0.384,1.879,0.767,2.529,2.271C458.588,522.896,458.17,527.268,457.762,530.561"/>
		<path fill-rule="evenodd" clip-rule="evenodd" fill="#FFFFFF" d="M457.375,531.074c0.41-3.291,0.779-7.45,0.373-8.365
			c-0.654-1.504,0.582-2.479-1.496-2.858c-2.068-0.39-10.879-0.656-11.893-4.392c-1.039-3.742-0.389-5.574,0.742-6.696
			c1.127-1.118,7.561-5.184,5.953-8.926c-1.586-3.744-8.316,0.592-8.316,0.592s-9.547,1.208-10.654-2.264
			c-1.107-3.47,0.508-7.244,2.043-9.484c1.855-2.741,5.023-3.154,4.838-4.832c-0.174-1.681-2.09-2.15-4.355-1.794
			c-2.283,0.359-10.426,1.097-12.008-2.666c-1.584-3.748-0.947-9.305,0-10.604c0.945-1.297,1.131-1.564-0.596-1.392
			c-1.701,0.181-13.418,4.912-14.934,5.946c-1.518,1.007-9.188,4.342-11.268,4.906c-2.092,0.537-7.945,1.727-8.982,2.289
			c-1.039,0.556-2.178,0.178-2.561,2.042c-0.385,1.881-7.895,34.489-18.562,51.659c-10.654,17.169-21.473,28.156-31.984,37.188
			l-3.744,2.891l-0.02,0.025h-0.023c-11.496,1.255-23.157,2.184-35.006,1.91c-16.098-0.382-21.109-0.832-21.109-0.832
			s21.357-4.599,64.219-36.159c0,0,33.992-27.771,43.223-59.016c0,0-1.113-8.116,11.422-15.492
			c12.541-7.375,38.518-22.57,38.518-22.57s8.191-4.46,10.26-6.483c2.053-2.016,3.859-3.137,4.998-1.546
			c1.127,1.573,3.049,5.736,1.441,9.348c-1.604,3.583-4.924,7.052-7.443,9.294c-2.504,2.24-7.201,5.389-7.436,6.515
			c-0.248,1.119-1.684,2.01-0.328,1.566c1.379-0.447,4.324-1.993,5.934-2.891c1.582-0.896,8.439-5.605,17.062-5.562
			c0,0,4.998,0.47,6.807,3.634c1.812,3.16,0.209,6.298-0.719,7.638c-0.91,1.352-4.555,4.264-4.57,5.854
			c0,1.572-0.23,2.019,0.906,1.794c1.127-0.222,5.699-3.116,7.283-4.689c1.604-1.564,9.348-5.599,13.865,0.057
			c4.535,5.642-0.271,9.008-0.271,9.008s-2.828,4.231-5.922,6.495c-1.738,1.269-6.154,2.45-5.934,3.812
			c0.223,1.348,0,2.238,1.818,1.571c1.807-0.65,4.09-2.22,6.379-3.563c2.283-1.348,4.09-2.017,6.354-1.554
			c2.291,0.451,5.457,2.493,5.654,5.655c0.23,3.161-0.248,8.785-2.754,11.247c-2.516,2.47-4.119,3.366-5.25,3.342
			c-1.141,0-2.514,0.45-2.061,1.572c0.453,1.144,2.939,3.611,3.842,4.298c0.91,0.683,3.402,2.043,3.402,2.043
			s2.486-0.691,5.742-2.264C480.162,516.442,468.506,524.307,457.375,531.074"/>
		<path fill-rule="evenodd" clip-rule="evenodd" fill="#FFFFFF" d="M183.696,125.525c3.081-1.627,12.268-4.294,16.345-2.172
			c4.077,2.122,6.855,6.676,5.222,8.179c-1.633,1.504-3.366-2.4-5.711-2.623c-2.351-0.217-8.859-0.594-13.969,3.452
			c-5.105,4.053-8.39,12.615-5.785,13.724c2.61,1.101,3.73-6.775,8.562-6.775c4.814,0,6.465,1.473,2.266,4.758
			c-4.202,3.279-7.053,10.011-6.026,15.332c1.02,5.319,4.887,12.552,3.111,13.523c-1.77,0.965-13.344-5.631-14.793-15.282
			C171.466,147.995,173.895,130.729,183.696,125.525"/>
		<path fill-rule="evenodd" clip-rule="evenodd" fill="#82BC00" d="M155.681,153.205c0.247-0.902-4.594-23.597,3.458-35.834
			c8.312-12.64,20.992-24.568,39.824-36.156C217.772,69.646,217.526,57,217.526,57s-9.121-2.555-12.869-4.727
			c-3.743-2.171-9.392-3.143-9.392-3.143c-20.058-2.302-34.851,3.725-35.637,4.04l0.442-1.343
			c10.852-18.134,31.229-20.132,31.229-20.132c20.397-0.649,32.03,17.707,32.03,17.707s16.926-17.818,30.822-19.321
			c13.92-1.503,17.979,7.041,18.808,8c0.805,0.946,1.968,0.99,2.512,0.514c0.508-0.464-0.18-1.299-0.18-1.299
			c1.564-5.977,10.307-5.977,10.307-5.977c13.854-0.52,28.592,15.844,28.592,15.844c16.869,21.611,10.189,38.396,10.189,38.396
			s-3.094-6.818-4.352-9.615c-1.23-2.802-8.945-10.221-14.229-17.595c-5.297-7.399-19.662-18.647-20.467-19.482
			c-0.804-0.848-1.768-0.464-1.768-0.464c-0.404,1.002,1.254,2.976,1.254,2.976c10.822,10.561,13.223,28.039,13.223,28.039
			c1.484,21.678-12.016,35.537-12.016,35.537c-0.246-2.357-6.992-20.942-8.359-26.028c-1.341-5.111-2.418-13.116-2.418-13.116
			c-0.272-2.735-1.28-8.13-1.752-10.803c-0.476-2.691-4.262-8.204-4.707-8.401c-0.446-0.205-1.546,0.197-1.053,1.163
			c0.49,0.965,0.966,2.729,0.966,2.729c2.35,53.337-32.525,66.669-33.583,67.047c12.398-34.72,10.938-54.803,10.938-54.803
			c-14.279,25.997-30.574,35.692-50.775,43.939C175.535,114.754,156.915,151.812,155.681,153.205"/>
		<path fill-rule="evenodd" clip-rule="evenodd" fill="#82BC00" d="M320.604,35.463c0,0,21.711,0.248,31.82,3.204
			c10.115,2.958,25.811,12.498,29.43,18.58c0,0-21.135,7.257-36.867,1.126C329.24,52.229,320.604,35.463,320.604,35.463"/>
		<path fill-rule="evenodd" clip-rule="evenodd" fill="#82BC00" d="M304.326,32.5c0,0-8.147-9.93,12.943-19.643
			c21.096-9.708,41.242-9.714,51.021-8.6c0,0-23.021,13.444-32.881,17.391C325.535,25.595,311.231,31.516,304.326,32.5"/>
		<path fill-rule="evenodd" clip-rule="evenodd" fill="#82BC00" d="M351.389,26.585c0,0,16.328-12.337,38.279-10.115
			c21.951,2.221,37.59,15.071,49.012,16.166c0,0-13.004,6.775-37.172,4.801C377.332,35.463,369.102,28.559,351.389,26.585"/>
		<path fill-rule="evenodd" clip-rule="evenodd" fill="#82BC00" d="M340.811,71.91c0,0,21.326-6.614,38.908,10.537
			c17.596,17.149,18.523,39.49,18.523,39.49s-14.936-14.428-29.146-21.468C354.887,93.422,344.244,85.168,340.811,71.91"/>
		<path fill="#022169" d="M227.219,138.685c-3.971,0-7.034-2.258-8.655-4.999c-1.683-0.104-3.304-0.569-4.837-1.38
			c-3.306-1.731-7.877-7.238-7.748-12.052c-0.086-0.606-0.569-1.831-0.866-2.252c-0.805-0.847-1.429-1.751-1.918-2.647
			c-3.031,1.225-7.381,2.636-11.259,2.636c-0.923,0-1.808-0.075-2.637-0.235c-1.162-0.217-2.152-0.322-2.945-0.322
			c-1.04,0-1.392,0.186-1.435,0.21c-1.621,0.947-3.501,1.448-5.419,1.448c-2.443,0-4.87-0.792-7.014-2.289
			c-2.607-1.831-4.958-5.005-5.503-8.328c-1.269-1.281-2.109-3.044-2.363-5.036c-0.272-2.141,0.151-4.232,1.166-6.001
			c-0.374-2.233,0.019-4.702,1.445-6.626c-0.041-0.458-0.047-0.94-0.006-1.454c0.226-3.329,2.159-7.034,5.58-10.022
			c-0.989-1.182-1.85-2.481-2.58-3.874c-3.161-6.075-1.595-15.219-1.045-17.88c1.306-6.23,5.841-10.258,11.558-10.258
			c3.204,0,6.446,1.274,9.626,3.768c0.273,0.124,1.516,0.248,2.339,0.334c0.711,0.068,1.479,0.142,2.271,0.278
			c0.911-5.779,6.119-13.376,13.266-13.376c0.532,0,1.062,0.043,1.583,0.136c2.352-2.011,5.024-3.068,7.777-3.068
			c1.937,0,5.531,0.582,8.724,4.293c1.621,0.471,3.012,1.423,3.997,2.778c1.435,1.986,1.782,4.59,0.953,7.14
			c-0.038,0.155-0.086,0.371-0.117,0.625l1.206-0.433c1.064-0.396,2.196-0.594,3.348-0.594c0.637,0,1.268,0.068,1.874,0.18
			c1.078-0.601,2.309-0.94,3.577-0.94c3.408,0,6.41,2.356,7.468,5.673c0.482,1.139,0.674,2.407,0.562,3.675
			c-0.105,1.071-0.421,2.098-0.915,3.038c2.846,1.169,4.454,3.057,5.408,4.318c2.282,0.384,6.657,1.491,8.76,6.23
			c1.868,4.194,0.395,8.036-0.581,10.103c0.444,1.237,0.952,2.938,0.717,4.956c-0.588,5.116-6.992,9.441-10.419,10.505
			c-0.668,0.428-2.203,1.708-3.478,3.087c-0.717,0.773-1.583,1.411-2.561,1.899c2.128,3.917,2.957,9.46,0.036,14.304
			c0,0-0.581,0.946-0.723,1.188c0.475,1.139,1.057,2.79,0.946,4.819c-0.234,4.103-3.817,9.701-9.267,10.438
			c-1.746,3.365-5.216,5.691-9.169,5.981C227.702,138.679,227.462,138.685,227.219,138.685"/>
		<path fill="#FF9012" d="M175.504,58.899c-0.644,3.106-1.436,9.948,0.452,13.586c1.887,3.632,5.364,6.707,9.991,7.814
			c-8.266,1.269-12.088,6.701-12.287,9.502c-0.12,1.751,1.138,1.615,0.75,3.001c-0.235,0.835-1.136,0.99-1.875,1.714
			c-0.743,0.73-0.4,2.333-0.006,2.846c0.537,0.705,0.64,1.602-0.476,2.499c-1.59,1.281-1.148,3.842-0.201,4.275
			c1.385,0.631,1.734,1.541,1.5,2.667c-0.235,1.126,1.045,3.452,2.846,4.715c1.794,1.249,3.873,1.479,5.469,0.55
			c2.289-1.336,5.32-1.312,8.816-0.663c4.251,0.786,11.539-2.444,13.531-3.501c1.979-1.058,3.365-4.151,3.835-6.403
			c0.47-2.259,2.116-2.357,1.806-0.21c-0.296,2.14-1.843,5.345-1.744,6.983c0.1,1.646,0.396,3.719,2.005,5.426
			c1.391,1.486,2.635,5.005,2.524,6.701c-0.1,1.547,2.438,5.216,4.293,6.192c1.855,0.979,3.315,0.626,4.46,0.489
			c2.11-0.241,2.357,1.38,2.575,2.45c0.221,1.076,1.614,2.84,3.705,2.686c2.091-0.148,3.724-1.621,4.207-3.236
			c0.421-1.404,2.723-2.741,4.096-2.679c2.425,0.111,4.09-3.18,4.152-4.43c0.092-1.597-1.269-3.062-1.256-4.529
			c0.012-1.466,1.249-3.278,1.954-4.442c2.178-3.619,0.099-8.29-1.553-9.695c-1.089-0.909-3.922-1.231-4.423-2.784
			c-0.47-1.472-2.128-4.368-3.366-5.506c-1.101-1.027-4.504-3.131-6.409-3.254c2.895-0.031,8.166,1.788,9.626,3.334
			c1.571,1.652,7.727,2.5,9.441,0.649c1.702-1.849,4.776-4.597,6.312-4.863c1.521-0.272,5.729-3.508,5.914-5.091
			c0.186-1.578-1.336-3.508-1.034-4.925c0.291-1.404,2.604-4.059,1.411-6.762c-1.193-2.679-4.337-2.375-5.735-2.815
			c-2.35-0.737-2.172-4.431-7.177-4.888c-2.288-0.203-6.404,0.632-8.983,4.746c-1.188,1.905-7.708,8.525-11.385,8.445
			c1.646-2.685,3.175-5.34,3.553-6.163c0.401-0.872,0.977-1.646,1.595-2.258c0,0.093,0.024,0.173,0.081,0.223
			c0.439,0.235,0.698,0.525,1.137,0.346c0.799-0.253,0.471-0.897,0.341-0.921c-0.137-0.248-0.334-0.421-0.544-0.501
			c0.297-0.205,0.582-0.371,0.841-0.488c0.024-0.013,0.043-0.019,0.062-0.025c-0.038,0.192-0.019,0.421,0.056,0.724
			c0.093,0.173,0.649,0.415,1.144,0.143c0.657-0.322,0.582-0.854,0.366-1.473c-0.043-0.055-0.081-0.099-0.13-0.136
			c0.173-0.111,0.346-0.223,0.52-0.358c-0.007,0.253,0.012,0.557,0.074,0.884c0.533,0.242,0.78,0.093,1.194,0.031
			c0.638-0.229,0.557-0.984,0.156-1.002c-0.187-0.297-0.391-0.483-0.619-0.563c0.21-0.185,0.433-0.396,0.675-0.631
			c0.012-0.018,0.031-0.03,0.049-0.049c0.08,0.278,0.234,0.52,0.543,0.637c0.959,0.291,1.69,0.124,1.628-0.414
			c0.477-0.483,0.062-1.35-0.52-1.789c-0.024-0.006-0.049-0.012-0.08-0.012c0.204-0.217,0.415-0.427,0.624-0.65
			c0.024,0.137,0.075,0.297,0.13,0.489c0.28,0.563,1.503,0.439,2.012-0.075c0.34-0.291,0.507-1.293,0.582-1.584
			c-0.334-0.278-0.792-0.501-1.152-0.563c0.155-0.179,0.31-0.353,0.452-0.531c0.743,0.482,1.819,0.959,2.977,0.637
			c0.723-0.588,0.556-1.466,0.062-2.561c-0.508-0.279-0.892-0.532-1.3-0.532c0.037-0.092,0.081-0.173,0.113-0.254
			c0.229-0.532,0.451-1.058,0.593-1.528c0.533,0.415,0.965,0.464,1.492-0.05c0.897-0.717,0.946-1.657,0.582-2.084
			c-0.18-1.25-1.492-2.079-2.185-1.034c-0.749,0.049-1.312,0.768-1.15,1.565c-0.248,0.049-0.544,0.13-0.892,0.253
			c-0.272,0.093-0.544,0.21-0.816,0.341c0.124-0.464,0.135-0.928,0.037-1.287c-0.756-0.613-1.979-0.762-2.982-0.391
			c-0.792,1.269-1.026,1.689-0.73,3.224c0.235,0.019,0.582,0.136,0.94,0.222c-0.401,0.315-0.78,0.644-1.139,0.972
			c0.025-0.322,0.014-0.644,0.025-0.94c-0.52,0.135-1.521-0.081-1.93-0.094c-0.587,0.805-0.792,1.67-0.693,1.999
			c0.223,0.52,0.662,0.557,1.052,0.506c-0.284,0.291-0.532,0.539-0.73,0.737c-0.383-0.408-0.83-0.538-1.385-0.217
			c-0.805,0.706-0.91,1.59-0.816,2.066c0.167,0.21,0.334,0.359,0.52,0.482c-0.131,0.223-0.261,0.458-0.403,0.693
			c-0.012-0.012-0.018-0.025-0.031-0.037c-0.321,0.074-0.762-0.433-1.218,0.154c-0.415,0.105-0.551,0.514-0.143,0.835
			c0.093,0.18,0.354,0.34,0.618,0.433c-0.135,0.235-0.259,0.47-0.383,0.699c-0.519-0.402-1.002-0.619-1.298-0.278
			c-0.434,0.347-0.366,0.761,0.055,1.67c0.092,0.118,0.204,0.21,0.327,0.291c-0.147,0.26-0.266,0.477-0.346,0.625
			c-0.618,1.051-4.331,5.612-6.062,7.554c-1.045-3.001,2.289-6.96,3.947-8.915c2.598-3.087,2.562-7.604,0.638-11.539
			c-1.393-2.84-0.651-8.18-0.242-9.41c0.408-1.244-0.136-1.918-1.547-1.751c-0.903,0.105-1.151-0.625-1.757-1.447
			c-2.604-3.483-5.643-3.038-8.074-0.805c-1.503,1.392-2.141,2.395-4.139,1.498c-3.806-1.727-8.18,4.356-8.327,8.209
			c-0.124,3.162,1.107,9.77,2.066,11.953c1.453,3.348-1.226,3.626-1.467,1.368c-0.277-2.654-3.161-7.183-6.711-8.272
			c-2.611-0.798-6.286-0.198-8.81-2.177C180.689,51.697,176.525,54.018,175.504,58.899 M193.112,76.259
			c3.353,0.408,5.289,2.382,6.038,3.031c0.743,0.644,4.157,3.113,4.825,3.657c0.668,0.532,2.654,1.819,3.217,2.431
			c-0.364-1.058-0.668-2.004-1.485-2.765c1.126,0.73,2.066,1.417,2.314,2.054c-0.692-1.813-0.692-2.301-1.818-3.019
			c1.386,0.872,2.624,2.011,2.734,2.425c-0.409-1.355-0.439-2.147-1.775-3.7c1.417,0.687,2.845,1.869,3.211,2.927
			c-0.482-1.479-0.434-2.154-0.954-2.945c1.158,1.027,2.018,2.085,1.975,2.759c0.353-1.689,1.231-3.563,0.271-5.531
			c0.935,1.175,1.441,3.439,1.429,4.417c0.42-1.089,0.657-1.726,0.743-2.592c0.248,1.132,0.396,1.85,0.235,2.599l0.854-2.171
			l-0.1,2.332c0.841-1.689,1.423-3.038,2.71-4.536c-0.272,0.823-1.423,3.526-1.287,5.222c0.916-1.571,1.559-1.831,2.128-2.202
			c-0.606,1.051-1.224,2.096-1.311,2.963l1.713-1.602l-1.145,2.208c1.213-1.12,2.004-1.64,4.12-2.376
			c-0.383,0.903-1.453,2.741-2.326,3.632c1.286-0.513,3.366-1.553,5.58-0.891c-0.755,0.334-3.854,1.554-4.652,2.556
			c2.568-0.544,3.465-0.644,3.465-0.644c-0.829,0.216-2.598,1.218-3.248,1.961c1.658-0.433,2.222-0.804,3.285-0.681
			c-0.768,0.328-2.463,0.953-3.298,1.665c1.59-0.55,3.137-0.668,4.548-0.742c-2.005,0.661-3.874,1.274-5.383,2.19
			c-0.717,0.581-5.036,2.357-6.311,2.258c-3.087-0.229-5.97-2.419-7.449-6.163c-0.947-2.412-4.108-5.667-6.571-6.57
			c-2.45-0.909-6.193-2.276-7.505-2.549C190.575,77.596,189.764,75.857,193.112,76.259"/>
		<path fill-rule="evenodd" clip-rule="evenodd" fill="#82BC00" d="M75.635,107.491c0,0,27.572-14.842,43.125-23.325
			c12.222-6.668,28.992-15.826,43.833-12.998c0,0-17.512,18.87-27.132,24.413C125.833,101.13,100.383,111.029,75.635,107.491"/>
		<path fill="#FFFFFF" d="M308.051,122.116c-0.223,0.031,3.527-3.978,8.111-6.008c4.578-2.022,7.133-1.497,8.705-1.052
			c1.576,0.452,3.836,1.578,4.949,4.356c1.131,2.777,1.131,3.303,0.828,3.909c-0.297,0.595-0.854,0.328-1.584-0.439
			c-0.816-0.859-1.15-1.441-2.35-2.351c-1.201-0.897-2.617-1.392-2.617-1.392s0.811,1.076,1.373,1.998
			c0.6,0.978,0.674,2.252,0.674,2.252s-1.996-2.215-2.908-2.814c-1.039-0.669-2.709-0.984-2.709-0.984s1.41,1.238,2.08,2.296
			c0.475,0.742,0.76,1.806,0.76,1.806s-3.037-2.245-4.141-2.753c-0.932-0.421-3.291-1.069-3.291-1.069s2.16,1.744,2.611,3.148
			c0,0-4.105-2.302-5.617-2.556l1.053,1.727C313.979,122.19,309.629,121.888,308.051,122.116"/>
		<path fill-rule="evenodd" clip-rule="evenodd" fill="#82BC00" d="M60.131,132.461c0,0,29.858-3.144,50.29-11.946
			c20.429-8.799,49.028-31.43,51.862-28.918c2.825,2.512-7.858,19.489-13.832,28.918c-4.26,6.718-17.917,16.66-33.944,18.856
			C98.478,141.574,65.786,133.085,60.131,132.461"/>
		<path fill-rule="evenodd" clip-rule="evenodd" fill="#FFFFFF" d="M341.664,110.145c-0.471-5.512-6.193-19.105-6.193-19.105
			c-0.236,9.911-9.516,13.741-9.516,13.741s-2.828-4.9-7.021-12.547c-4.189-7.647-9.77-13.655-9.77-13.655
			c2.625,8.68-5.109,20.646-10.096,27.148c3.996-0.829,13.475-2.536,20.316-1.528c8.871,1.325,18.646,7.981,20.826,10.314
			c0.508,0.557,0.828,1.255,0.939,2.042C341.571,114.092,341.793,111.803,341.664,110.145"/>
		<path fill-rule="evenodd" clip-rule="evenodd" fill="#FFFFFF" d="M342.883,180.903c-4.609,0.155-8.229-0.383-12.162-1.603
			c-4.383-1.36-5.676,1.621-5.186,5.296c0.494,3.67,2.795,4.803,3.662,8.977c0.742,3.491,0.186,7.277-5.381,8.494
			c-5.967,1.308-11.521,1.06-12.414-4.59c-0.562-3.469-5.152-9.145-7.868-19.104c-3.378-12.362-8.606-16.563-19.667-24.161
			c-11.062-7.585-8.062-19.915-8.805-27.005c-0.73-7.096,1.974-3.18,4.182-1.467c2.217,1.708,14.688,2.648,23.381,6.199
			c5.945,2.426,12.943,10.945,16.383,11.187c2.926,0.197,11.674-3.78,14.596-10.004c0.939-0.377,1.879-1.002,2.752-1.894
			c1.344-1.355,2.297-2.71,3.125-3.557c0.186-0.18,0.359-0.421,0.562-0.73c-0.924,3.823-1.926,7.207-2.283,8.339
			c-0.73,2.444-3.822,4.938-1.436,8.359c2.4,3.446,8.062,25.688,8.662,28.794C345.666,176.004,347.504,180.742,342.883,180.903"/>
		<path fill-rule="evenodd" clip-rule="evenodd" fill="#FFFFFF" d="M257.597,178.095c1.875-2.072,10.085,6.36,14.267,14.682
			c4.182,8.315,18.197,33.025,17.459,34.25c-0.736,1.22-11.692-4.212-16.723-9.786C262.219,205.739,253.167,182.989,257.597,178.095
			"/>
		<path fill="#FFFFFF" d="M55.225,84.389c0,0-12.182,19.304-18.69,35.668c-7.926,19.934-14.787,47.713-37.354,70.926
			c-28.648,29.479-76.587,39.021-90.563,41.636c0,0,42.649,1.672,62.187-7.689c19.544-9.359,43.233-26.146,54.84-51.932
			C37.252,147.21,46.037,105.542,55.225,84.389"/>
		<path fill="#FFFFFF" d="M43.442,170.034c0,0-6.923,23.317-21.722,41.365c-14.808,18.059-49.854,46.331-66.237,52.71
			c0,0,19.195,1.696,43.085-16.468C23.759,228.498,37.843,207.371,43.442,170.034"/>
		<path fill-rule="evenodd" clip-rule="evenodd" fill="#82BC00" d="M155.681,48.536c0,0-7.332,15.746-9.429,16.03
			c-6.917,0.947-6.729,0.322-15.693,3.254c-11.093,3.631-30.885,19.093-46.436,24.036c-15.554,4.955-36.178,5.395-51.026-3.087
			c0,0,14.26,0.266,40.419-10.345C99.675,67.826,122.362,44.452,155.681,48.536"/>
		<path fill-rule="evenodd" clip-rule="evenodd" fill="#FFFFFF" d="M96.055,174.241c-1.633,3.26-3.313,7.22-5.404,12.162
			c-1.046,2.475-2.199,5.185-3.49,8.168c6.137-4.5,12.625-11.979,18.01-19.112C102.124,175.106,99.084,174.704,96.055,174.241"/>
	</g>
</g>
</svg>
