<?xml version="1.0" encoding="utf-8"?>
<!-- Generator: Adobe Illustrator 16.0.0, SVG Export Plug-In . SVG Version: 6.00 Build 0)  -->
<!DOCTYPE svg PUBLIC "-//W3C//DTD SVG 1.1//EN" "http://www.w3.org/Graphics/SVG/1.1/DTD/svg11.dtd">
<svg version="1.1" id="Layer_1" xmlns="http://www.w3.org/2000/svg" xmlns:xlink="http://www.w3.org/1999/xlink" x="0px" y="0px"
	 width="539px" height="289.367px" viewBox="0 0 539 289.367" enable-background="new 0 0 539 289.367" xml:space="preserve">
<g>
	<defs>
		<rect id="SVGID_1_" y="1.367" width="568.621" height="288"/>
	</defs>
	<clipPath id="SVGID_2_">
		<use xlink:href="#SVGID_1_"  overflow="visible"/>
	</clipPath>
	<path clip-path="url(#SVGID_2_)" fill-rule="evenodd" clip-rule="evenodd" fill="#61B4E4" d="M550.773,526.149
		c1.194-2.026,2.18-4.171,2.924-6.377l0.233-0.73c3.071-10.224,1.677-26.174-7.902-37.638c-0.757-8.239-3.552-18.155-11.482-25.847
		c-2.086-2.198-6.097-5.887-11.916-8.95c-1.538-4.003-3.852-8.076-7.313-11.729l-1.35-1.427l-1.571-1.18
		c-1.07-0.806-4.652-3.32-10.203-5.488c-1.19-3.842-2.96-7.739-5.55-11.351c-5.889-8.82-8.886-11.749-12.403-13.978
		c-2.304-1.588-8.876-6.004-18.302-6.004c-7.446,0-14.573,2.739-20.669,7.965c-5.353,4.613-22.691,19.693-32.339,27.893
		l-20.145,16.757c-4.843,4.385-12.923,11.655-15.424,13.774c-4.077,3.486-7.425,8.294-12.489,15.568
		c-3.28,4.711-6.997,10.048-10.202,13.854c-8.831,10.44-43.964,42.32-88.065,51.548c-9.979,2.093-20.342,3.151-30.799,3.151
		c-34.828,0.005-61.934-11.507-70.459-15.591l-4.246-2.538c-8.39-3.878-15.954-11.11-21.666-17.915
		c53.772-55.938,61.319-103.923,65.169-159.831c1.694-24.573,0.041-41.085-1.053-52.013c-0.475-4.777-1.071-10.723-0.665-12.196
		c0,0,0.495-1.13,3.239-3.833c4.673-3.248,14.479-10.94,22.629-23.119c12.42,7.979,28.053,14.861,45.016,14.861
		c0.973,0,1.949-0.024,2.924-0.067c4.727-0.149,23.495-1.505,38.762-13.473c4.849-2.28,7.3-3.945,8.472-4.82l0.233-0.146
		c4.59-2.905,18.557-11.743,18.455-28.961c-0.017-2.574-0.359-5.077-0.918-7.456c1.877-2.357,3.171-4.371,4.089-6.17
		c2.863-3.297,6.063-7.874,7.833-13.542c3.067-4.359,5.979-9.648,7.241-15.249c0.617-2.789,0.854-5.848,0.857-8.883
		c5.464-3.325,13.961-9.19,16.169-20.378c2.275-11.473-3.883-30.371-3.936-30.513c-0.383-1.074-1.219-3.895-2.028-6.78
		c6.154,5.336,16.534,15.863,28.066,31.803l18.426,25.453l18.955-25.059c3.503-4.635,15.39-23.506,8.59-58.729l14.426,11.913
		l10.58-32.474c1.12-3.438,4.169-15.613-1.848-32.36c16.887-1.894,30.618-5.728,40.975-11.454
		c5.846-3.206,10.788-7.101,14.683-11.572l35.562-39.86l-51.751,1.31c-7.374-4.616-14.562-8.768-21.548-12.459
		c2.766-3.003,5.305-6.348,7.514-10.065l22.076-37.2l-43.224,2.1c-0.25,0.012-2.249,0.101-5.314,0.101
		c-4.945,0-14.537-0.24-23.266-1.848c-16.256-2.962-40.089-5.195-55.434-5.195c-2.484,0-4.771,0.058-6.617,0.159
		c-6.725,0.312-24.608,1.742-45.244,8.275c-11.342,3.559-21.791,8.119-31.231,13.624c-7.963-4.911-18.946-10.844-32.507-16.135
		c-23.103-9.017-46.96-13.59-70.906-13.59c-3.162,0-6.368,0.082-9.539,0.243c-70.82,3.681-102.919,43.673-123.806,73.479
		c-9.847,2.038-24.425,6.171-37.01,14.196L27.611-4.85C11.031,5.761-39.42,38.052-54.012,41.829
		c-13.785,3.561-26.277,6.538-39.579,6.509c-16.377-0.036-68.472-5.341-68.472-5.341l19.535,37.467
		c3.813,6.85,10.113,14.596,15.531,20.342c-1.04,1.251-17.71-2.752-18.926-0.32c-1.216,2.429,7.65,23.783,23.984,36.763
		c16.789,16.97,37.772,27.266,57.85,33.612l-0.241,0.841c-7.299,28.946-11.175,59.253-11.175,90.465
		c0,203.728,165.153,368.883,368.883,368.883c99.093,0,189.061-39.073,255.337-102.653L550.773,526.149z"/>
	<path clip-path="url(#SVGID_2_)" fill-rule="evenodd" clip-rule="evenodd" fill="#FFFFFF" d="M112.811,450.761
		c-38.894,28.814-74.683,28.636-91.736,26.243C-4.863,444.6-24.768,407.438-37.089,367.066
		c18.429-38.535,51.953-73.256,72.953-83.386c18.759-8.376,31.818-12.067,61.497-16.827c0,0,68.573-64.5,85.525-93.033
		c0,0,6.084,38.435-68.064,96.546c0,0,31.892,11.913,42.28,28.814C173.138,325.223,177.972,402.501,112.811,450.761"/>
	<path clip-path="url(#SVGID_2_)" fill-rule="evenodd" clip-rule="evenodd" fill="#FFFFFF" d="M327.138,198.559
		c-2.051-0.456-2.928-0.406-4.455-0.968c-1.833-0.661-11.199-3.511-16.495-11.937c0,0,4.813,4.096,26.523,2.977
		c0,0,0.268,2.138-0.448,3.851C331.234,194.94,328.92,197.372,327.138,198.559"/>
	<path clip-path="url(#SVGID_2_)" fill-rule="evenodd" clip-rule="evenodd" fill="#022169" d="M524.443,490.467
		c0,0,2.597-14.051-4.532-20.465c0,0-5.829-6.948-15.806-7.229c0,0,0.814-8.96-3.768-13.82c0,0-6.897-5.143-17.386-4.175
		c0,0,1.35-11.507-3.487-17.92c0,0-4.582-6.925-5.853-7.688c-1.273-0.763-5.602-4.888-11.252-0.05
		c-5.625,4.836-32.58,30.036-32.58,30.036l-19.498,14.228c0,0-12.319,11.175-15.909,14.229c-3.59,3.055-12.091,17.334-20.058,26.753
		c-7.969,9.443-47.319,48.059-101.028,59.309c-59.308,12.422-108.868-10.512-118.515-15.426l-1.526-1.222
		c-26.065-12.04-42.178-41.871-42.178-41.871c60.276-55.975,68.241-100.442,72.24-158.555c4.022-58.138-12.014-64.145,10.13-84.686
		c0,0,25.046-15.373,26.904-43.882c0,0,28.026,32.072,57.373,30.544c0,0,16.623-0.355,27.135-10.104c0,0,5.498-2.342,7.23-3.717
		c1.729-1.374,6.874-5.834,6.848-11.204c-0.023-5.37-3.156-11.247-3.156-11.247s10.767-9.775,11.377-12.624
		c0.103-0.483,0-1.12,0-1.12s-2.903-0.476-4.455-0.969c-4.373-1.383-10.467-3.414-16.493-11.937c0,0,4.811,4.097,26.521,2.977
		c0,0,0.358-0.382,0.865-1.042c1.807-2.112,5.678-7.026,6.466-10.589c1.043-4.683-0.764-14.561-0.764-14.561
		s6.416-4.683,7.867-6.312c1.451-1.603,9.215-4.811,9.825-7.915c0.609-3.107-1.783-14.765-2.98-18.023
		c-1.194-3.259-4.961-16.646-5.065-18.682c-0.101-2.038,0.511-4.633,0.511-4.633s10.92-21.56,10.793-29.222
		c0,0,10.435,8.909,18.835,13.083c8.425,4.176,25.404,20.44,41.67,42.892c0,0,21.557-28.509-18.507-95.021
		c0,0,26.065,4.023,48.517,22.553c0,0,6.618-20.313-24.232-47.626c0,0,49.763,4.174,74.3-9.366c3.284-1.833,6.135-3.948,8.322-6.466
		c0,0-4.859,0-7.481-1.4c-2.598-1.375-36.222-24.437-68.446-30.977c-0.688-0.154-1.374-0.281-2.061-0.409
		c0,0,0.305-0.024,0.864-0.101c5.217-0.737,32.938-5.447,44.442-24.791c0,0-17.615,0.915-33.904-2.089
		c-16.293-2.977-43.273-5.42-56.813-4.709c-7.663,0.382-22.731,1.985-39.354,7.254c-12.752,3.998-26.396,10.157-38.36,19.549
		c0,0-15.222-12.598-40.777-22.577c-18.708-7.304-42.965-13.236-70.813-11.785C130.566-70.925,104.96-31.699,84.952-2.758
		c0,0-21.966,2.24-38.003,12.473C25.976,23.077-26.715,57.365-46.288,62.43c-22.656,5.856-43.503,10.438-70.688,4.431
		c0,0-2.849-0.868-3.308,0.178c0,0,0.026,0.127,0.153,0.254c0.077,0.101,0.205,0.202,0.382,0.329l-0.509-0.329l-0.053-0.053
		c5.245,9.419,16.445,20.085,16.522,20.136c5.242,4.149,9.748,5.956,12.292,6.72h0.027c5.42,2.595,12.624,5.649,21.711,8.73
		c-10.791,1.018-21.228,1.605-27.718,1.018c0,0,27.336,16.19,85.018,13.567c0.228,0,0.432-0.025,0.66-0.025
		c0.637,0.101,7.867-0.127,8.528-0.05c0,0-3.563,0.507-9.698,1.043c-17.081,1.502-54.166,3.308-89.802-4.633
		c0,0-3.894-1.069-4.582,0.229c-0.713,1.324-0.432,1.578,2.494,3.717c2.012,1.475,21.102,26.089,76.058,35.354
		c24.893,4.2,57.17,5.27,98.558-0.406c0,0-13.264,10.921-18.658,15.299c-1.807,1.449-5.015,4.327-9.647,7.864
		c-3.64-3.385-11.709-8.628-23.953-11.276c-26.09-4.861-51.137,4.99-52.384,5.473l-3.412,11.2
		c23.341-3.691,47.194-4.328,60.837,1.475c0,0-6.949,8.681-10.998,10.998c-3.155,1.806-27.159,0.076-55.439,10.002
		c-4.631,21.916-7.077,44.62-7.077,67.862c0,33.216,4.964,65.29,14.23,95.582c18.429-38.539,51.953-73.26,72.951-83.39
		c18.761-8.374,31.817-12.064,61.499-16.827c0,0,68.573-64.5,85.525-93.033c0,0,6.083,38.435-68.064,96.549
		c0,0,31.895,11.91,42.279,28.814c16.037,26.039,20.871,103.317-44.29,151.577c-38.894,28.814-74.684,28.636-91.736,26.243
		c23.187,29.019,51.213,54.243,82.853,74.506l0.024,0.024c41.414,24.231,96.548,46.633,165.299,54.039
		c0,0,24.028-5.218,72.24-41.058c0,0,38.231-31.539,48.618-67.021c0,0-1.249-9.214,12.853-17.588s43.322-25.634,43.322-25.634
		s9.214-5.064,11.531-7.354c2.315-2.292,4.354-3.566,5.627-1.756c1.271,1.779,3.054,6.389,1.247,10.484
		c-1.81,4.073-5.933,7.892-8.758,10.437c-2.823,2.547-8.451,6.11-8.705,7.383c-0.279,1.271-0.788,2.545,0.739,2.036
		c1.553-0.51,4.861-2.266,6.667-3.283c1.783-1.018,9.494-6.365,19.194-6.312c0,0,5.625,0.533,7.66,4.123
		c2.038,3.588,0.23,7.15-0.815,8.679c-1.016,1.528-5.114,4.837-5.139,6.644c0,1.78-0.255,2.29,1.016,2.035
		c1.274-0.255,6.416-3.537,8.196-5.319c1.807-1.78,10.516-6.362,15.604,0.051c5.091,6.415-0.306,10.232-0.306,10.232
		s-4.633,6.111-6.67,7.382c-2.06,1.273-6.923,2.775-6.668,4.327c0.254,1.528,0,2.545,2.037,1.783
		c2.036-0.738,4.606-2.521,7.178-4.049c2.57-1.526,4.606-2.29,7.153-1.756c2.571,0.509,6.134,2.825,6.362,6.415
		c0.255,3.59-0.279,9.979-3.104,12.777c-2.826,2.8-4.633,3.818-5.906,3.792c-1.273,0-2.825,0.51-2.316,1.783
		c0.51,1.297,3.309,4.1,4.328,4.888c1.019,0.764,3.817,2.315,3.817,2.315s2.8-0.788,6.467-2.571
		c6.771-5.446,13.286-11.148,19.599-17.079c0.406-0.713,0.712-1.373,0.892-1.96C534.573,507.113,534.905,494.59,524.443,490.467"/>
	<path clip-path="url(#SVGID_2_)" fill-rule="evenodd" clip-rule="evenodd" fill="#82BC00" d="M185.801,23.969l-2.367,1.17
		c-52.104,29.17-32.3,24.309-72.722,64.527c-34.134,33.983-57.78,42.762-82.193,47.573c-18.912,3.743-34.54,6.975-53.07,5.396
		c-9.496-0.814-19.727-2.9-31.563-6.795l-23.799-9.673c0,0,28.559,4.25,61.878,2.215c16.342-0.968,33.829-3.489,49.661-8.732
		c43.45-14.457,64.195-46.02,74.249-57.424c11.634-13.234,27.617-26.803,27.617-26.803
		C165.743,15.213,185.801,23.969,185.801,23.969"/>
	<path clip-path="url(#SVGID_2_)" fill-rule="evenodd" clip-rule="evenodd" fill="#82BC00" d="M118.679,25.675l-16.442,18.53
		c0,0-6.416-4.988-30.929,0.764C55.07,48.787,35.189,61.719,16.786,71.95l-0.026,0.027C7.395,77.168-1.592,81.649-9.534,83.863
		c-25.911,7.23-74.351,16.113-103.877-12.04c2.112,1.172,25.758,13.492,64.397,4.914c37.52-8.35,69.515-30.011,97.082-40.319
		c2.216-0.841,4.405-1.605,6.567-2.266C83.654,25.166,102.032,23.157,118.679,25.675"/>
	<path clip-path="url(#SVGID_2_)" fill-rule="evenodd" clip-rule="evenodd" fill="#82BC00" d="M92.13,61.998
		c0,0-5.702,10.894-29.833,26.676c-15.959,10.462-43.399,15.197-68.342,17.283c-29.096,2.42-54.779,1.223-54.779,1.223
		c21.892-4.354,45.742-11.43,65.697-18.607c13.847-4.964,25.787-9.952,33.956-14.129c10.767-5.497,26.421-12.345,34.848-13.311
		C82.077,60.165,92.13,61.998,92.13,61.998"/>
	<path clip-path="url(#SVGID_2_)" fill-rule="evenodd" clip-rule="evenodd" fill="#FFFFFF" d="M22.528,182.676
		c0,0-6.949,8.679-10.998,10.995c-3.154,1.807-27.158,0.077-55.437,10.005c1.603-7.585,3.46-15.094,5.599-22.478
		C-14.965,177.508,8.885,176.873,22.528,182.676"/>
	<path clip-path="url(#SVGID_2_)" fill-rule="evenodd" clip-rule="evenodd" fill="#FFFFFF" d="M11.532,193.671
		c-3.157,1.807-27.159,0.077-55.439,10.003c1.605-7.583,3.462-15.094,5.6-22.476c23.341-3.691,47.191-4.327,60.837,1.478
		C22.53,182.676,15.578,191.355,11.532,193.671"/>
	<path clip-path="url(#SVGID_2_)" fill-rule="evenodd" clip-rule="evenodd" fill="#FFFFFF" d="M433.204-34.677
		c-0.687-0.154-1.374-0.279-2.062-0.406c0,0,0.305-0.026,0.865-0.103C432.416-35.033,432.822-34.855,433.204-34.677"/>
	<path clip-path="url(#SVGID_2_)" fill-rule="evenodd" clip-rule="evenodd" fill="#022169" d="M477.189,554.84
		c-42.712,26.32-91.789,43.704-144.453,49.561l0.026-0.027l4.2-3.284c11.836-10.258,24.004-22.73,35.992-42.227
		c11.989-19.498,20.439-56.532,20.873-58.671c0.432-2.114,1.706-1.68,2.876-2.316s7.763-1.986,10.105-2.598
		c2.34-0.636,10.969-4.428,12.675-5.574c1.706-1.17,14.893-6.543,16.801-6.745c1.934-0.204,2.876,0.024,1.807,1.502
		c-1.069,1.476-2.266,8.17-0.483,12.42c1.78,4.277,10.284,3.131,12.855,2.726c2.544-0.409,5.421-0.179,5.625,1.729
		c0.202,1.91-3.362,3.131-5.447,6.237c-1.732,2.545-3.004,6.567-1.757,10.513s10.717,2.394,10.717,2.394s8.628-5.065,10.411-0.815
		c1.807,4.251-5.245,8.78-6.516,10.053c-1.274,1.274-2.472,3.514-1.3,7.765c1.146,4.25,10.283,4.607,12.6,5.041
		c2.343,0.432,2.138,0.864,2.876,2.57C478.132,546.135,477.648,551.1,477.189,554.84"/>
	<path clip-path="url(#SVGID_2_)" fill-rule="evenodd" clip-rule="evenodd" fill="#FFFFFF" d="M477.189,554.84
		c0.459-3.74,0.942-8.705,0.483-9.748c-0.738-1.706-0.533-2.139-2.876-2.57c-2.316-0.434-11.454-0.791-12.6-5.041
		c-1.172-4.251,0.025-6.49,1.3-7.765c1.271-1.272,8.322-5.802,6.516-10.053c-1.783-4.25-10.411,0.815-10.411,0.815
		s-9.47,1.552-10.717-2.394s0.024-7.968,1.757-10.513c2.085-3.106,5.649-4.327,5.447-6.237c-0.204-1.908-3.081-2.139-5.625-1.729
		c-2.571,0.405-11.075,1.552-12.855-2.726c-1.782-4.25-0.586-10.944,0.483-12.42c1.069-1.478,0.127-1.706-1.807-1.502
		c-1.908,0.202-15.095,5.575-16.801,6.745c-1.706,1.146-10.335,4.938-12.675,5.574c-2.343,0.611-8.936,1.961-10.105,2.598
		s-2.444,0.202-2.876,2.316c-0.434,2.139-8.884,39.173-20.873,58.671c-11.988,19.496-24.156,31.969-35.992,42.227l-4.2,3.284
		l-0.026,0.027h-0.023c-12.932,1.425-26.044,2.477-39.379,2.162c-18.105-0.428-23.747-0.942-23.747-0.942
		s24.028-5.218,72.237-41.056c0,0,38.232-31.539,48.617-67.021c0,0-1.247-9.215,12.855-17.588
		c14.1-8.376,43.322-25.633,43.322-25.633s9.215-5.065,11.53-7.355c2.317-2.292,4.353-3.565,5.625-1.759
		c1.274,1.783,3.055,6.39,1.247,10.488c-1.807,4.073-5.93,7.891-8.755,10.436c-2.826,2.548-8.451,6.11-8.706,7.384
		c-0.278,1.271-0.79,2.545,0.738,2.035c1.552-0.51,4.861-2.266,6.67-3.284c1.78-1.018,9.493-6.363,19.191-6.313
		c0,0,5.625,0.536,7.663,4.123c2.034,3.59,0.228,7.153-0.815,8.681c-1.02,1.526-5.118,4.837-5.142,6.645
		c0,1.78-0.256,2.29,1.019,2.035c1.271-0.255,6.413-3.537,8.196-5.32c1.807-1.78,10.512-6.362,15.603,0.051
		c5.092,6.415-0.305,10.233-0.305,10.233s-4.632,6.11-6.67,7.382c-2.062,1.273-6.922,2.775-6.668,4.327
		c0.253,1.528,0,2.545,2.036,1.783c2.034-0.74,4.607-2.521,7.177-4.05c2.573-1.525,4.607-2.289,7.152-1.756
		c2.571,0.51,6.135,2.825,6.365,6.415c0.254,3.588-0.28,9.978-3.106,12.778c-2.826,2.799-4.634,3.818-5.906,3.792
		c-1.271,0-2.823,0.509-2.316,1.783c0.51,1.297,3.312,4.096,4.327,4.887c1.02,0.762,3.818,2.316,3.818,2.316s2.802-0.79,6.466-2.571
		C501.703,538.65,489.713,547.154,477.189,554.84"/>
	<path clip-path="url(#SVGID_2_)" fill-rule="evenodd" clip-rule="evenodd" fill="#82BC00" d="M303.669-11.005
		c0,0-2.119-2.006-2.928-3.919c-0.807-1.915,1.181-8.833,8.68-13.643c7.499-4.813,20.106-8.852,31.488-10.921
		c11.474-2.088,24.667-3.88,34.387-3.207c0,0-15.462,10.209-30.064,16.17C330.628-20.565,309.34-11.13,303.669-11.005"/>
	<path clip-path="url(#SVGID_2_)" fill-rule="evenodd" clip-rule="evenodd" fill="#82BC00" d="M356.104-17.343
		c0,0,9.69-7.393,22.206-9.628c12.517-2.237,23.096-3.131,36.804,0.745c13.708,3.873,26.075,12.069,31.292,13.559
		c5.215,1.49,8.815,2.196,8.815,2.196s-8.667,3.167-18.353,4.359c-9.686,1.194-21.903,1.641-37.251-1.341
		C384.27-10.433,363.551-16.057,356.104-17.343"/>
	<path clip-path="url(#SVGID_2_)" fill-rule="evenodd" clip-rule="evenodd" fill="#82BC00" d="M322.53-6.957
		c0,0,18.679,0.25,32.089,3.378c13.41,3.131,26.707,9.78,36.078,21.058c0,0-20.514,6.868-38.056,2.367
		C335.099,15.346,325.457,3.075,322.53-6.957"/>
	<path clip-path="url(#SVGID_2_)" fill-rule="evenodd" clip-rule="evenodd" fill="#82BC00" d="M344.37,33.896
		c2.415-2.859,14.667-2.172,22.069-0.228c7.4,1.941,21.854,7.158,31.391,26.08c9.536,18.924,11.473,31.217,11.473,31.217
		s-11.771-11.548-25.684-20.186c-14.248-8.847-26.02-13.862-33.769-23.101C342.688,39.139,342.167,36.503,344.37,33.896"/>
	<path clip-path="url(#SVGID_2_)" fill-rule="evenodd" clip-rule="evenodd" fill="#FFFFFF" d="M300.513,37.211
		c0,0,16.82,14.097,20.544,20.801c3.728,6.706,5.521,13.124,5.521,13.124s4.735-2.364,7.077-5.983
		c2.338-3.616,3.765-9.594,3.765-9.594s5.976,12.71,6.67,19.7c0.694,6.99-0.637,15.534-2.876,20.873
		c-2.24,5.337-3.77,7.826-4.049,8.22c-0.279,0.396-0.034,2.706,0.663,3.489c0.697,0.781,2.986,5.968,4.029,11.033
		c1.044,5.068,3.734,12.358,3.734,12.358s2.818,3.164,3.539,6.593c0.721,3.429,1.009,6.435,0.865,6.721
		c-0.145,0.283-0.265,1.963-4.303,2.316c-4.037,0.351-10.205,0.8-16.062-2.852c-5.858-3.65-10.233-13.16-10.233-13.16
		s-5.459,6.233-7.098,11.298s-3.575,15.495,1.788,20.712c5.365,5.214,14.455,7.004,22.942,7.153l-1.087,4.95
		c0,0-9.936-0.034-13.809,0.413c-3.874,0.447-7.994,2.636-11.671,2.362c-3.676-0.276-5.483-3.657-7.559-8.299
		c-2.078-4.642-5.633-15.561-6.314-23.214c-0.68-7.652-0.978-17.636-8.727-23.001c-7.749-5.364-20.414-13.112-24.437-24.884
		c-4.024-11.771-5.456-18.595-0.79-27.103c0,0,3.621,11.459,8.688,16.822c5.065,5.365,11.474,9.536,19.22,13.857
		c7.749,4.322,18.956,19.527,18.956,19.527s6.295-5.94,8.986-8.475c2.693-2.534,11.466-13.962,14.126-20.286
		c2.657-6.327,8.445-12.221,0.101-15.948c-8.345-3.724-31.861-5.754-41.191-3.57C291.523,73.165,303.082,51.85,300.513,37.211"/>
	<path clip-path="url(#SVGID_2_)" fill-rule="evenodd" clip-rule="evenodd" fill="#82BC00" d="M138.466,13.347l0.507-1.523
		c12.283-20.53,35.35-22.786,35.35-22.786c23.093-0.738,36.263,20.046,36.263,20.046s19.159-20.173,34.893-21.875
		c15.757-1.698,20.351,7.968,21.291,9.059c0.913,1.067,2.232,1.117,2.84,0.584c0.584-0.534-0.202-1.471-0.202-1.471
		c1.495-7.34,11.673-6.776,11.673-6.776c15.683-0.583,32.353,17.942,32.353,17.942c19.11,24.463,11.548,43.469,11.548,43.469
		s-3.395-7.763-4.923-10.887c-1.854-3.784-9.611-11.637-16.113-19.919c-6.357-8.098-22.257-21.113-23.17-22.053
		c-0.913-0.963-2.004-0.533-2.004-0.533C278.315-2.233,280.192,0,280.192,0c12.256,11.951,14.972,31.745,14.972,31.745
		c1.675,24.54-13.6,40.22-13.6,40.22c-0.281-2.662-7.917-23.701-9.467-29.46c-1.521-5.786-2.739-14.845-2.739-14.845
		c-0.305-3.097-1.216-9.262-1.98-12.232c-1.206-4.681-4.517-9.316-5.33-9.515c-0.54-0.135-1.751,0.228-1.191,1.319
		c0.557,1.091,1.091,3.095,1.091,3.095c2.664,60.37-36.823,75.471-38.015,75.901c14.032-39.307,12.384-62.044,12.384-62.044
		c-16.166,29.436-41.059,38.165-63.924,47.503c-22.355,9.135-51.258,42.176-52.654,43.75c0.278-1.017,5.101-17.663,14.21-31.518
		c9.414-14.313,27.735-25.707,49.053-38.826C204.293,32,204.015,17.686,204.015,17.686s-10.33-2.893-14.568-5.353
		c-4.236-2.463-10.632-3.554-10.632-3.554C156.103,6.165,139.355,12.991,138.466,13.347"/>
	<path clip-path="url(#SVGID_2_)" fill="#82BC00" d="M-198.922,105.574c-6.319-3.136-40.547-18.398-44.355-20.08l-15.828-6.978
		c-2.489-1.095-39.758-17.002-43.406-18.258l11.63-26.376c2.508,1.454,31.33,14.686,33.968,15.847l8.059,3.553l18.924-50.463
		l-8.354-3.684c-2.492-1.098-28.118-12.045-31.472-13.174l11.564-26.229c3.388,1.843,43.637,20.114,47.155,21.664l14.655,6.461
		c1.905,0.838,38.668,16.697,41.582,17.631l-11.562,26.229c-4.856-2.489-29.427-13.845-32.212-15.072l-12.746-5.623l-18.925,50.466
		l6.889,3.037c6.593,2.907,32.433,13.773,35.869,15.111L-198.922,105.574z"/>
	<path clip-path="url(#SVGID_2_)" fill="#82BC00" d="M-155.496-177.287c24.261-24.66,55.833-27.524,81.865-1.915
		c16.325,16.06,31.815,54.889-3.114,90.395c-25.383,25.575-57.895,24.369-80.042,2.581
		C-179.051-108.127-185.031-147.262-155.496-177.287 M-89.338-105.462c10.558-10.733,15.027-31.945-4.839-51.715
		c-17.356-17.298-36.258-16.123-48.164-4.022c-13.141,13.357-12.281,35.092,5.413,52.5
		C-120.832-92.862-102.03-92.564-89.338-105.462"/>
	<path clip-path="url(#SVGID_2_)" fill="#82BC00" d="M18.219-172.492c-2.062-5.577-11.091-28.055-20.525-51.405
		c-9.433-23.348-19.342-47.712-22.809-56.699l0.961-0.978c18.718,4.554,98.168,28.053,104.91,30.396
		c-2.77-5.955-25.955-57.007-28.441-62.74l23.292-9.938c3.333,8.696,11.351,28.995,20.051,50.389
		c8.557,21.46,17.875,43.801,23.516,57.079l-0.961,0.977c-15.469-2.883-101.808-28.658-104.91-30.395l-0.291,0.135
		c2.295,4.938,26.407,58.738,28.778,63.467L18.219-172.492z"/>
	<path clip-path="url(#SVGID_2_)" fill="#82BC00" d="M238.582-357.357c34.499-2.561,60.137,16.094,62.84,52.513
		c1.693,22.838-12.244,62.258-61.92,65.947c-35.95,2.508-59.61-19.83-61.91-50.814C175.281-320.861,196.574-354.241,238.582-357.357
		 M241.009-259.728c15.013-1.115,32.358-14.126,30.443-42.089c-1.653-24.451-16.646-36.026-33.576-34.769
		c-18.689,1.387-32.371,18.302-30.532,43.058C209.014-271.006,222.962-258.39,241.009-259.728"/>
	<path clip-path="url(#SVGID_2_)" fill="#82BC00" d="M434.016-219.281c-3.117-0.738-53.563-14.299-62.607-16.433
		c2.732-8.078,10.613-41.436,11.495-45.177l4.897-20.731c0.588-2.494,9.371-41.068,9.76-44.103l28.057,6.627
		c-1.157,3.513-9.219,34.85-13.858,54.49l-8.246,34.915c3.741,0.884,22.132,5.231,35.686,7.773L434.016-219.281z"/>
	<path clip-path="url(#SVGID_2_)" fill="#82BC00" d="M623.784-213.847c-15.73,26.428-27.079,42.046-44.997,48.346
		c-14.323,5.267-29.384,3.014-44.389-5.918c-9.635-5.735-24.756-16.973-25.848-38.317c-0.627-13.979,3.262-25.837,23.171-59.284
		l4.426-7.431c3.768-6.334,10.38-17.125,12.264-20.292l24.501,14.585c-2.679,3.251-7.297,10.382-14.753,22.91l-5.572,9.359
		c-12.456,20.921-17.336,31.626-16.528,42.172c0.523,8.517,5.048,14.38,11.519,18.232c7.433,4.423,15.126,4.339,22.202,0.911
		c9.462-4.621,15.743-14.864,31.229-40.879l3.032-5.092c5.654-9.5,10.429-18.775,13.324-23.951l24.227,14.422
		c-1.802,3.028-7.565,13.021-14.036,23.896L623.784-213.847z"/>
	<path clip-path="url(#SVGID_2_)" fill="#82BC00" d="M678.52-46.662c-2.139-2.388-35.794-42.339-41.998-49.257
		c6.856-5.07,32.382-27.947,35.246-30.513l15.862-14.22c1.908-1.708,31.155-28.353,33.209-30.621l19.242,21.469
		c-2.958,2.218-27.479,23.336-42.505,36.806L670.857-89.05c2.565,2.862,15.18,16.935,24.849,26.768L678.52-46.662z"/>
	<path clip-path="url(#SVGID_2_)" fill="#82BC00" d="M831.316,65.781c-27.979,12.759-46.198,19.129-64.51,14.104
		c-14.772-3.827-25.864-14.258-33.108-30.143c-4.651-10.199-10.678-28.047,0.579-46.21c7.449-11.843,17.395-19.371,52.806-35.52
		l7.869-3.588c6.704-3.056,18.283-8.159,21.633-9.69l11.828,25.938c-4.053,1.146-11.91,4.378-25.171,10.423l-9.909,4.52
		c-22.148,10.101-32.258,16.118-37.599,25.244c-4.421,7.297-4.039,14.69-0.915,21.541c3.587,7.869,9.957,12.182,17.725,13.39
		c10.406,1.593,21.402-3.243,48.942-15.805l5.395-2.458c10.054-4.587,19.261-9.489,24.588-12.094l11.693,25.648
		c-3.205,1.463-13.633,6.394-25.145,11.641L831.316,65.781z"/>
	<path clip-path="url(#SVGID_2_)" fill="#82BC00" d="M-311.102,426.715c7.379,0.097,115.757-9.83,119.601-10.635l0.127,0.293
		c-7.258,8.588-49.514,59.89-54.93,67.497c10.462,1.547,77.36,8.684,83.127,9.486l0.127,0.293
		c-9.791,10.392-69.793,67.872-82.446,80.912l-10.943-10.254c9.405-8.475,61.094-57.779,65.498-62.498
		c-10.524-1.694-67.804-7.614-79.97-9.468l-0.132-0.293c12.137-15.433,39.853-49.204,50.644-60.905
		c-10.38,1.037-83.507,8.854-89.999,9.592L-311.102,426.715z"/>
	<path clip-path="url(#SVGID_2_)" fill="#82BC00" d="M-192.855,639.318c17.132-4.546,114.282-35.69,121.315-37.235l0.226,0.229
		c-6.269,26.018-30.97,103.811-35.163,123.268l-15.954-3.378c2.081-6.561,13.501-41.723,14.085-44.778l-40.67-37.959
		c-3.515,0.772-34.742,13.162-40.53,15.053L-192.855,639.318z M-104.433,666.8c1.269-3.732,13.965-43.983,14.662-46.926
		c-4.196,0.769-45.062,15.255-47.897,16.03L-104.433,666.8z"/>
	<path clip-path="url(#SVGID_2_)" fill="#82BC00" d="M5.052,747.024c-2.828,5.39-21.238,41.487-22.074,43.765l-13.754-7.226
		c2.352-3.104,25.671-48.202,27.236-51.182l6.105-11.627c2.232-4.253,17.363-33.754,18.353-36.673
		c6.663,3.5,18.501,9.896,28.749,16.905c17.526,12.096,23.992,25.621,17.663,37.673c-6.329,12.056-19.326,17.168-34.826,18.437
		c1.016,6.685,9.933,51.706,11.673,58.045l-15.321,2.991c-0.516-2.805-10.457-61.386-11.583-69.577
		c9.099-0.104,27.821-1.308,35.116-15.205c3.352-6.382,3.662-18.338-22.99-32.695L5.052,747.024z"/>
	<path clip-path="url(#SVGID_2_)" fill="#82BC00" d="M116.643,843.34c11.31-13.641,72.326-95.379,77.156-100.718l0.315,0.055
		c9.995,24.821,35.03,102.486,42.909,120.762l-14.948,6.504c-2.114-6.543-13.22-41.796-14.518-44.624l-55.139-7.302
		c-2.417,2.669-20.647,30.875-24.261,35.775L116.643,843.34z M204.578,814.397c-1.134-3.774-14.155-43.913-15.296-46.713
		c-2.97,3.063-27.832,38.57-29.691,40.849L204.578,814.397z"/>
	<path clip-path="url(#SVGID_2_)" fill="#82BC00" d="M341.053,865.169c0.336-4.227-4.651-50.731-7.456-76.048l-2.626-23.72
		c-18.309,2.024-40.828,5.327-44.896,6.422l-1.502-13.532c6.509,0.567,44.312-2.975,46.065-3.17l13.851-1.535
		c3.024-0.334,37.664-4.814,44.525-6.862l1.499,13.532c-2.302-0.391-31.841,2.076-45.215,3.557l2.91,26.27
		c3.58,32.32,9.368,70.034,10.038,73.184L341.053,865.169z"/>
	<path clip-path="url(#SVGID_2_)" fill="#82BC00" d="M491.896,832.953c-2.672-6.527-18.285-40.608-20.037-44.389l-7.271-15.7
		c-1.146-2.47-18.219-38.171-20.123-41.524L459,724.607c0.923,2.751,14.225,32.604,15.436,35.222l5.255,11.336l63.546-32.795
		l-5.387-11.63c-1.144-2.47-13.557-28.502-15.327-31.563l14.825-6.869c1.177,3.689,18.636,43.273,20.251,46.76l6.735,14.537
		c0.873,1.891,18,38.094,19.572,40.72l-14.537,6.735c-1.853-5.145-13.404-31.219-14.683-33.982l-7.005-15.113l-63.546,32.796
		l4.308,9.301c3.03,6.543,15.859,33.084,17.552,36.361L491.896,832.953z"/>
	<path clip-path="url(#SVGID_2_)" fill="#82BC00" d="M634.604,696.283c-25.032-25.263-27.461-63.447-0.038-90.624
		c21.507-21.31,51.876-23.208,76.231,1.372c17.591,17.752,32.252,56.219-0.065,88.243
		C685.926,719.854,654.448,716.311,634.604,696.283 M700.322,618.536c-20.183-20.367-44.098-17.646-59.005-2.876
		c-20.369,20.187-16.76,48.633,2.521,68.093c16.801,16.954,41.708,19.787,59.574,2.086
		C720.479,668.923,722.536,640.955,700.322,618.536"/>
	<path clip-path="url(#SVGID_2_)" fill="#82BC00" d="M810.089,568.28c-10.503-5.884-89.917-48.47-104.468-56.28l0.137-0.289
		c6.554-1.848,112.606-37.221,119.438-39.646c-4.049-1.928-71.749-35.214-76.454-37.627l7.124-13.108
		c8.402,4.71,66.24,35.606,102.409,53.53l-0.14,0.288c-5.762,2.047-115.641,39.502-120.495,40.384l-0.137,0.288
		c5.06,2.41,75.228,37.222,80.068,39.348L810.089,568.28z"/>
	<path clip-path="url(#SVGID_2_)" fill="#82BC00" d="M858.268,351.967c15.856,3.408,25.267,17.972,21.714,34.501
		c-3.472,16.155-17.584,25.274-33.066,21.944c-15.861-3.404-25.273-17.968-21.72-34.499
		C828.746,357.385,842.406,348.557,858.268,351.967 M847.824,401.989c12.883,2.769,24.776-4.724,27.338-16.637
		c2.799-13.028-4.705-24.146-17.96-26.995c-12.881-2.766-24.592,4.608-27.15,16.521C827.25,387.909,834.573,399.143,847.824,401.989
		 M845.956,389.67c-1.117-0.239-8.802-1.813-9.562-1.897c1.12-5.214,2.117-10.219,3.71-14.004c1.564-4.027,4.364-6.54,7.567-5.854
		c3.199,0.69,5.134,3.287,6.463,6.531c1.492-0.769,8.674-4.834,10.154-5.918l2.907,6.389c-0.599,0.263-12.884,5.956-14.688,6.735
		c-0.596-2.309-2.217-5.618-4.526-6.113c-1.639-0.351-4.128,0.361-5.308,6.572l9.903,2.129c1.413,0.302,10.827,2.167,11.438,2.223
		l-1.545,6.836c-0.862-0.342-12.644-2.798-13.46-2.973L845.956,389.67z"/>
	<path clip-path="url(#SVGID_2_)" fill-rule="evenodd" clip-rule="evenodd" fill="#FFFFFF" d="M183.924,154.314
		c0,0-19.518,5.906-30.304-20.03c-8.441-20.301,1.028-36.724,10.786-42.373c9.76-5.651,26.964-2.054,29.533,14.638
		c0,0-7.929-9.126-18.747-6.42c-9.243,2.311-13.609,12.326-12.84,17.206c0,0,9.503-12.071,18.489-3.854
		c0,0-13.083,4.635-13.609,15.666C166.718,139.933,169.543,146.354,183.924,154.314"/>
	<path clip-path="url(#SVGID_2_)" fill-rule="evenodd" clip-rule="evenodd" fill="#FFFFFF" d="M239.65,151.489
		c0,0,36.21,28.25,39.29,64.971C278.94,216.46,238.368,207.472,239.65,151.489"/>
	<path clip-path="url(#SVGID_2_)" fill-rule="evenodd" clip-rule="evenodd" fill="#FFFFFF" d="M295.377,92.167
		c0,0,15.409-9.758,21.058-8.989c5.649,0.772,7.96,4.366,7.446,8.989c-0.512,4.623-3.337,5.137-12.069,3.852
		C303.08,94.736,295.377,92.167,295.377,92.167"/>
</g>
</svg>
